<?xml version="1.0" encoding="UTF-8"?>
<svg xmlns="http://www.w3.org/2000/svg" 
     viewBox="0 0 1024 1024" 
     width="64" height="64"
     preserveAspectRatio="xMidYMid meet">
  <title>Sarmex Logo</title>
  
  <!-- Blue rounded rectangle background -->
  <g transform="translate(0,1024) scale(0.1,-0.1)" fill="#4F46E5">
    <path d="M1850 10175 c-25 -8 -64 -14 -87 -14 -23 -1 -45 -5 -48 -11 -3 -5
-24 -10 -47 -10 -22 0 -52 -6 -66 -14 -35 -17 -125 -46 -146 -46 -9 0 -16 -3
-16 -8 0 -4 -24 -16 -52 -26 -51 -17 -181 -80 -261 -125 -43 -24 -219 -141
-227 -150 -3 -4 -17 -14 -32 -24 -57 -36 -287 -270 -359 -364 -40 -54 -77
-102 -82 -108 -76 -95 -251 -469 -274 -585 -2 -14 -8 -34 -13 -45 -13 -34 -31
-126 -39 -205 -5 -41 -13 -88 -20 -103 -16 -41 -16 -6363 0 -6404 7 -15 15
-62 20 -103 17 -151 27 -212 38 -223 6 -6 11 -20 11 -31 0 -12 7 -34 15 -50 8
-15 15 -37 15 -47 0 -11 4 -27 10 -37 5 -9 17 -35 26 -57 100 -236 232 -447
379 -605 81 -88 214 -220 221 -220 4 0 97 -73 114 -90 11 -11 101 -70 107 -70
4 0 14 -6 22 -14 37 -33 310 -172 386 -196 22 -7 49 -16 60 -21 11 -4 45 -14
75 -22 30 -8 75 -20 100 -27 25 -6 83 -16 130 -20 47 -5 101 -13 120 -19 25
-8 967 -11 3205 -11 2786 0 3178 2 3228 15 32 8 81 15 108 15 28 0 59 5 70 10
10 6 38 15 61 19 24 5 68 16 98 25 30 9 69 21 85 26 92 27 320 134 385 180 15
11 31 20 34 20 4 0 43 26 87 58 44 31 91 64 104 73 62 40 231 203 327 314 69
81 203 284 268 406 26 50 92 217 118 299 45 143 53 178 62 265 5 44 13 93 19
108 8 20 11 978 11 3205 0 2770 -2 3184 -15 3232 -8 30 -15 74 -15 97 0 23 -5
54 -10 69 -6 15 -15 52 -20 83 -18 117 -83 298 -161 451 -97 192 -205 345
-352 496 -239 248 -433 382 -727 503 -58 24 -119 49 -137 57 -17 8 -43 14 -58
14 -14 0 -36 5 -47 11 -11 6 -44 15 -72 19 -28 5 -85 17 -126 26 -70 16 -277
18 -3320 19 -2626 2 -3254 0 -3290 -10z"/>
  </g>

  <!-- White S with arrows -->
  <g transform="translate(0,1024) scale(0.1,-0.1)" fill="#FFFFFF">
    <path d="M4165 8339 c-382 -38 -762 -193 -1045 -427 -88 -72 -208 -192 -258
-257 -26 -33 -53 -67 -61 -75 -29 -29 -120 -178 -164 -266 -213 -426 -270
-889 -166 -1347 43 -189 145 -435 246 -592 137 -212 333 -413 543 -556 104
-71 250 -157 520 -307 25 -13 81 -46 125 -72 84 -50 281 -162 375 -213 30 -17
87 -50 126 -73 83 -50 331 -192 424 -243 36 -20 122 -69 190 -109 222 -130
381 -222 385 -222 2 0 64 -35 137 -79 73 -43 160 -93 193 -111 33 -18 69 -39
79 -46 23 -16 24 -15 132 161 43 72 101 164 129 206 154 234 183 289 155 289
-5 0 -74 38 -152 84 -179 105 -438 254 -501 289 -47 27 -304 176 -572 333 -77
45 -153 88 -170 97 -16 8 -110 63 -208 121 -98 58 -180 106 -183 106 -2 0 -64
35 -137 79 -72 43 -152 89 -177 103 -347 193 -449 260 -566 371 -178 168 -270
336 -330 597 -25 105 -25 344 0 462 39 190 123 377 225 498 177 211 345 317
621 393 74 21 96 21 1343 24 697 2 1267 1 1267 -2 0 -10 -79 -119 -305 -421
-353 -474 -408 -548 -412 -564 -4 -15 2 -19 124 -86 34 -19 129 -74 210 -122
82 -49 155 -91 163 -95 8 -4 49 -27 90 -51 84 -49 84 -49 134 25 28 42 137
190 306 417 36 49 173 234 305 412 270 365 671 904 739 995 75 99 177 237 193
262 l15 23 -2003 -1 c-1102 -1 -2040 -5 -2084 -10z"/>
    <path d="M5380 6870 c-52 -4 -196 -15 -320 -24 -224 -17 -472 -34 -815 -57
-99 -7 -182 -13 -184 -15 -2 -2 25 -65 60 -141 34 -76 81 -183 104 -238 56
-132 145 -334 182 -415 17 -36 49 -108 71 -160 22 -52 54 -126 72 -165 44 -99
46 -104 71 -165 13 -30 30 -67 39 -82 l16 -26 43 71 c95 158 192 312 206 326
10 10 18 11 27 4 7 -6 38 -24 68 -40 30 -16 144 -82 253 -147 109 -64 222
-130 250 -145 29 -16 132 -76 231 -135 98 -58 179 -106 181 -106 5 0 434 -253
525 -309 133 -83 213 -146 295 -233 126 -134 196 -253 253 -428 136 -422 40
-871 -254 -1188 -128 -140 -322 -253 -533 -314 l-76 -22 -1267 -3 c-932 -3
-1268 -1 -1268 8 0 6 9 23 20 37 12 15 98 131 191 257 94 127 179 241 189 255
21 28 48 64 138 182 128 169 192 258 192 265 0 8 -77 57 -157 100 -23 12 -100
56 -170 96 -70 41 -175 102 -233 135 -57 33 -108 58 -112 56 -5 -3 -103 -132
-220 -287 -116 -155 -222 -295 -234 -312 -13 -16 -65 -86 -116 -155 -52 -69
-114 -152 -139 -185 -25 -33 -140 -186 -255 -340 -115 -154 -214 -287 -221
-295 -76 -98 -435 -584 -440 -595 -5 -14 214 -15 2053 -12 1622 2 2073 5 2124
16 232 45 368 87 525 161 207 96 348 195 522 364 164 158 239 255 346 446 87
154 138 273 173 405 130 486 87 980 -125 1416 -75 157 -153 274 -275 416 -116
135 -223 229 -376 331 -120 80 -133 88 -218 137 -29 17 -199 117 -378 223
-179 105 -328 192 -331 192 -3 0 -82 46 -176 103 -95 57 -255 152 -357 212
-102 59 -191 113 -198 120 -10 9 7 44 90 176 57 90 114 181 127 202 l23 37
-59 -2 c-32 -1 -101 -5 -153 -8z"/>
  </g>
</svg>
